<svg width="30" height="30" viewBox="0 0 30 30" fill="none" xmlns="http://www.w3.org/2000/svg">
<g clip-path="url(#clip0_184_697)">
<path d="M21.5769 9.9234L21.0555 15.06C20.0742 15.06 19.1523 15.06 18.2307 15.0585C18.1263 15.0585 18.0225 15.0312 17.9178 15.024C17.2029 14.9751 17.1423 15.0417 17.1432 15.7524C17.149 20.3724 17.1521 24.993 17.1525 29.6142C17.1525 29.7342 17.1387 29.8515 17.1294 30.0003H11.3052C11.2932 29.8011 11.2752 29.6331 11.2752 29.4651C11.2736 25.1771 11.2742 20.889 11.277 16.6008C11.277 16.2708 11.3211 15.9381 11.337 15.6066C11.3556 15.2031 11.2044 15.0045 10.7529 15.0237C9.98696 15.0561 9.21866 15.0327 8.42456 15.0327V9.9705C9.20696 9.9705 9.92186 9.9561 10.6362 9.9756C11.1162 9.9888 11.2986 9.8364 11.2962 9.3129C11.2938 7.9149 11.2407 6.4998 11.4324 5.1228C11.8257 2.2989 13.0443 0.6096 16.1724 0.2769C17.9208 0.09 19.6896 0.09 21.5205 0V5.1939C20.9571 5.1939 20.4525 5.1744 19.95 5.1987C19.3065 5.2287 18.66 5.2614 18.0243 5.3592C17.5908 5.4258 17.2989 5.7468 17.2782 6.1959C17.2254 7.3305 17.2062 8.4666 17.1795 9.6024C17.1696 10.0242 17.4957 9.9474 17.7423 9.9471C18.8097 9.9456 19.8774 9.9321 20.9448 9.9234C21.1329 9.9219 21.3207 9.9234 21.5769 9.9234Z" fill="#E382D3"/>
</g>
<defs>
<clipPath id="clip0_184_697">
<rect width="30" height="30" fill="white"/>
</clipPath>
</defs>
</svg>
