<svg width="30" height="30" viewBox="0 0 30 30" fill="none" xmlns="http://www.w3.org/2000/svg">
<g clip-path="url(#clip0_184_681)">
<path d="M7.71355 0.0263672H22.3269C22.4214 0.0437672 22.5153 0.0674672 22.6107 0.0779672C23.4288 0.167967 24.2307 0.347967 24.9714 0.699867C28.1973 2.22627 29.9244 4.78137 29.97 8.35377C30.027 12.7758 29.9844 17.1993 29.9832 21.6219C29.9832 22.7748 29.7981 23.9019 29.3073 24.9444C27.7929 28.1622 25.2423 29.8908 21.6831 29.9397C17.2431 30.0015 12.7992 29.958 8.35705 29.9529C6.63566 29.9508 5.04086 29.4867 3.63746 28.4862C1.25846 26.7897 0.0665553 24.4548 0.0599553 21.534C0.0487553 17.1696 0.0499553 12.8053 0.0635553 8.44107C0.0650553 7.87917 0.0950553 7.30407 0.215355 6.75777C0.962355 3.36777 3.02605 1.20297 6.36926 0.271767C6.80576 0.149667 7.26475 0.106167 7.71355 0.0263672ZM15.0213 27.3018C17.1835 27.3018 19.3458 27.3018 21.5082 27.3018C22.1925 27.3018 22.8684 27.2322 23.5182 27.0003C25.8882 26.1552 27.3234 24.1149 27.3282 21.5433C27.3363 17.1798 27.3429 12.816 27.3171 8.45247C27.3132 7.80087 27.222 7.11987 27.015 6.50487C26.2089 4.11147 24.135 2.68527 21.549 2.68197C17.1951 2.67657 12.8415 2.66817 8.48785 2.69367C7.83625 2.69757 7.15496 2.78667 6.53966 2.99367C4.16666 3.78777 2.72366 5.83797 2.71406 8.39517C2.69766 12.788 2.69696 17.1809 2.71196 21.5739C2.71556 23.5239 3.49556 25.101 5.07565 26.2575C6.09296 27.0021 7.25366 27.3054 8.50526 27.303C10.6773 27.299 12.8493 27.2986 15.0213 27.3018Z" fill="#E382D3"/>
<path d="M15.0258 22.704C10.7928 22.7112 7.30564 19.224 7.30774 14.9895C7.30984 10.755 10.8 7.26665 15.03 7.27835C19.26 7.29005 22.7166 10.7427 22.7328 14.9784C22.749 19.2066 19.2669 22.6968 15.0258 22.704ZM20.0718 14.9854C20.0634 12.1954 17.7945 9.93095 15.0141 9.93935C12.2241 9.94775 9.96004 12.2163 9.96844 14.997C9.97654 17.787 12.2448 20.0511 15.0258 20.043C17.8161 20.0349 20.0802 17.7657 20.0718 14.9854Z" fill="#E382D3"/>
<path d="M23.0517 5.03614C24.1236 5.03314 25.0155 5.92384 25.0017 6.98614C24.9879 8.04844 24.1155 8.91454 23.0583 8.91664C21.9885 8.91874 21.0951 8.02534 21.1062 6.96514C21.1127 6.45271 21.3203 5.96336 21.6842 5.60254C22.0481 5.24171 22.5392 5.0383 23.0517 5.03614Z" fill="#E382D3"/>
</g>
<defs>
<clipPath id="clip0_184_681">
<rect width="30" height="30" fill="white"/>
</clipPath>
</defs>
</svg>
