<svg width="30" height="30" viewBox="0 0 30 30" fill="none" xmlns="http://www.w3.org/2000/svg">
<path d="M9.0141 21.933C6.2043 21.6792 4.3281 20.2593 3.2766 17.6289C4.2165 17.7402 5.0877 17.7639 5.9892 17.514C2.3127 16.5768 1.0074 13.29 1.173 11.4036C2.004 11.8236 2.8659 12.1023 3.8934 12.1272C2.3478 11.0025 1.4634 9.56163 1.2318 7.75623C1.0599 6.40803 1.3296 5.12853 2.0256 3.91623C5.3616 7.84233 9.5742 10.0104 14.6856 10.353C14.6637 9.73263 14.6112 9.14763 14.628 8.56473C14.7 6.04863 16.6446 3.63003 19.0863 3.00783C21.3745 2.42403 23.3832 2.93993 25.1124 4.55553C25.1985 4.63563 25.3728 4.68363 25.4883 4.65993C26.679 4.417 27.8246 3.99019 28.884 3.39483C28.9599 3.35253 29.0388 3.31593 29.1732 3.24783C28.7049 4.68783 27.828 5.74443 26.64 6.57603C27.7914 6.46593 28.8768 6.13953 29.9343 5.70453L30 5.77743C29.5041 6.35823 29.0331 6.96273 28.5045 7.51203C28.0845 7.94733 27.5892 8.30763 27.1428 8.71803C27.0438 8.80803 26.9547 8.97063 26.9544 9.09993C26.9475 15.4572 24.444 20.5647 19.2696 24.288C17.0868 25.86 14.5932 26.7093 11.9271 27.06C9.4071 27.39 6.9246 27.2316 4.4811 26.529C2.94701 26.0865 1.4827 25.4305 0.1311 24.5805C0.0854953 24.5459 0.0417352 24.509 0 24.4698C1.6452 24.6222 3.213 24.5124 4.7529 24.0798C6.29913 23.6475 7.74643 22.9183 9.0141 21.933Z" fill="#E382D3"/>
</svg>
